<svg xmlns="http://www.w3.org/2000/svg" fill="rgb(255,255,254)" style="transform: none;"><g style="transform: none;"><path id="pV3eH6yFW" d="M934 4471 c3 -4 -39 -11 -94 -14 -93 -6 -157 -17 -205 -38 -11 -4 -41 -17 -67 -28 -26 -12 -51 -21 -56 -21 -19 0 -191 -135 -251 -198 -56 -59 -141 -171 -141 -186 0 -3 -11 -29 -24 -59 -36 -77 -66 -198 -78 -312 -15 -136 -22 -2655 -8 -2669 5 -5 10 -35 10 -66 0 -80 29 -226 57 -290 14 -30 30 -66 36 -80 36 -82 153 -220 261 -306 75 -61 117 -85 221 -129 57 -23 218 -55 281 -55 30 0 54 -4 54 -10 0 -7 442 -10 1305 -10 863 0 1305 3 1305 10 0 6 26 10 59 10 67 0 227 31 286 55 111 47 129 57 242 148 77 62 200 205 232 272 73 152 88 207 97 352 4 56 11 100 15 97 5 -3 9 583 9 1301 0 868 -3 1304 -10 1300 -6 -4 -10 17 -10 55 0 81 -35 239 -71 317 -16 35 -29 65 -29 68 0 18 -99 144 -166 211 -69 69 -190 164 -209 164 -3 0 -24 9 -48 19 -118 55 -231 81 -343 81 -36 0 -64 4 -64 10 0 7 -440 10 -1301 10 -715 0 -1298 -4 -1295 -9z m884 -1121 c23 -129 53 -296 65 -370 23 -135 23 -135 253 -323 126 -103 246 -204 267 -224 39 -37 39 -37 33 -3 -13 77 -89 503 -141 794 -30 170 -55 322 -55 338 0 28 0 28 249 28 229 0 250 -1 255 -17 3 -10 19 -99 36 -198 50 -290 69 -403 90 -515 11 -58 29 -157 39 -220 11 -63 34 -194 51 -290 17 -96 42 -240 56 -320 13 -80 36 -206 49 -280 47 -252 145 -818 145 -834 0 -15 -27 -16 -252 -14 -286 3 -237 -86 -374 687 -58 335 -58 335 -209 459 -82 68 -199 164 -259 214 -59 49 -111 87 -114 84 -3 -3 5 -63 17 -133 13 -71 34 -189 46 -263 39 -225 135 -773 140 -800 4 -21 27 -151 40 -227 4 -23 4 -23 -250 -23 -253 0 -253 0 -259 27 -3 16 -15 80 -26 143 -10 63 -44 252 -74 420 -30 168 -87 485 -125 705 -39 220 -89 503 -111 629 -22 125 -52 292 -65 370 -13 77 -33 191 -44 251 -12 61 -21 118 -21 128 0 16 17 17 253 15 252 -3 252 -3 295 -238z"/></svg>