<?xml version="1.0" standalone="no"?>
<!DOCTYPE svg PUBLIC "-//W3C//DTD SVG 20010904//EN"
 "http://www.w3.org/TR/2001/REC-SVG-20010904/DTD/svg10.dtd">
<svg version="1.0" xmlns="http://www.w3.org/2000/svg"
 width="224.000000pt" height="224.000000pt" viewBox="0 0 224.000000 224.000000"
 preserveAspectRatio="xMidYMid meet">

<g transform="translate(0.000000,224.000000) scale(0.100000,-0.100000)"
fill="#000000" stroke="none">
<path d="M866 1763 c-3 -16 -55 -309 -116 -653 -60 -344 -111 -633 -114 -642
-4 -16 7 -18 124 -18 l128 0 16 88 c8 48 23 131 32 184 l17 96 91 74 c50 40
110 90 134 112 23 21 42 36 42 32 0 -3 -22 -131 -50 -284 -27 -152 -50 -283
-50 -289 0 -10 32 -13 125 -13 121 0 125 1 130 23 3 12 55 306 115 652 61 347
113 638 116 648 5 16 -6 17 -125 17 -88 0 -131 -4 -131 -11 0 -22 -81 -475
-88 -491 -8 -20 -251 -222 -258 -215 -3 3 8 81 25 173 46 253 91 517 91 532 0
9 -31 12 -124 12 l-124 0 -6 -27z"/>
</g>
</svg>
